
<svg viewBox="0 0 19 21" version="1.1" xmlns="http://www.w3.org/2000/svg" xmlns:xlink="http://www.w3.org/1999/xlink">
  <g id="页面-1" stroke="none" stroke-width="1">
    <g id="产品分析" transform="translate(-16.000000, -77.000000)">
      <g id="编组-7" transform="translate(0.000000, 68.000000)">
        <g id="产品" transform="translate(16.000000, 9.009338)">
          <rect id="矩形" opacity="0" x="0" y="0.990662109" width="14" height="14"></rect>
          <path d="M9.38460998,8.71478431 C8.95741467,8.71478431 8.54949812,8.6301698 8.23369556,8.47436915 L1.94387286,5.3793038 C1.51334009,5.16737488 1.26538619,4.82730699 1.26285449,4.44701286 C1.26036037,4.0616929 1.50998299,3.71324209 1.94807414,3.49043697 L8.30405714,0.263011744 C8.63911883,0.0929778026 9.07049579,0 9.52030732,0 C9.94750263,0 10.3554388,0.0854390618 10.6712217,0.240395522 L16.9610444,3.33546088 C17.3915968,3.5473898 17.6395311,3.88830186 17.6420628,4.268596 C17.6445569,4.65391596 17.3949539,5.00236676 16.9568628,5.22434734 L10.6008602,8.45175293 C10.2658181,8.62180651 9.83442151,8.71560886 9.38378543,8.71560886 L9.38460998,8.71478431 Z M2.40709314,4.43696121 L8.69776003,7.53287074 C8.86863815,7.61664107 9.11824114,7.66521098 9.38294125,7.66521098 C9.66690049,7.66521098 9.93662642,7.61077106 10.1242508,7.51528035 L16.4802534,4.28785512 C16.4856097,4.28517451 16.4909115,4.28238618 16.4961554,4.27949183 L10.2055082,1.18440685 C10.0346301,1.10065615 9.78416324,1.05122243 9.51948277,1.05122243 C9.23634808,1.05122243 8.96664178,1.10568198 8.77899781,1.20117269 L2.42383936,4.42775373 C2.4185258,4.43051694 2.41322506,4.43330473 2.40793733,4.43611702 L2.40709314,4.43696121 Z M8.07789492,20.0773354 C7.86011562,20.0773354 7.6339534,20.0195383 7.40192117,19.9073014 L7.38853205,19.8997627 L1.76796891,16.9512709 C1.09535225,16.6187221 0.588587891,15.906743 0.588587891,15.2927479 L0.588587891,7.34355804 C0.588587891,6.78653541 0.998192805,6.38195632 1.56108545,6.38195632 C1.77886475,6.38195632 2.00502697,6.43890915 2.2370592,6.55199026 L2.25044832,6.55870445 L7.87101146,9.50717664 C8.54362811,9.83972541 9.05039248,10.5517241 9.05039248,11.1665438 L9.05039248,19.1157336 C9.05039248,19.6727563 8.64163174,20.0773354 8.07789492,20.0773354 Z M7.86932309,18.9649588 C7.92209428,18.990088 7.96481381,19.0051654 7.99832587,19.0143729 L7.99832587,11.167388 C7.99832587,10.9973344 7.76126781,10.6245986 7.40192117,10.4486947 L7.38853205,10.4419805 L1.76963764,7.49352794 C1.72833078,7.47314801 1.68512255,7.45687341 1.64063487,7.4449384 L1.64063487,15.2919233 C1.64063487,15.4619769 1.87851748,15.8347127 2.23703957,16.0106166 L2.25042869,16.0173308 L7.86934272,18.9657637 L7.86932309,18.9649588 Z M11.1001054,20.077355 C10.5363686,20.077355 10.1284324,19.6727563 10.1284324,19.1157336 L10.1284324,11.1665438 C10.1284324,10.5517241 10.6343722,9.83972541 11.3069889,9.50802082 L16.9409411,6.55200989 C17.1721292,6.43892878 17.3991356,6.38195632 17.6169149,6.38195632 C18.1798075,6.38195632 18.5885879,6.78653541 18.5885879,7.34355804 L18.5885879,15.2919037 C18.5885879,15.906743 18.0826481,16.6187221 17.4100314,16.9504267 L11.7760792,19.907321 C11.5666744,20.0148195 11.3354501,20.0729814 11.1001054,20.077355 L11.1001054,20.077355 Z M17.4091872,7.49350831 L11.7769233,10.4486947 C11.4175571,10.6245986 11.1796745,10.9973344 11.1796745,11.167388 L11.1796745,19.0143729 C11.2244298,19.0020878 11.2679044,18.9855407 11.3095018,18.9649588 L16.9417853,16.0097528 C17.3002878,15.8346734 17.53819,15.4619376 17.53819,15.2918841 L17.53819,7.44491877 C17.4937235,7.45691966 17.4505216,7.47319189 17.4091872,7.49350831 L17.4091872,7.49350831 Z" id="形状"></path>
        </g>
      </g>
    </g>
  </g>
</svg>
